<svg xmlns="http://www.w3.org/2000/svg" xml:space="preserve" width="128" height="128" viewBox="0 0 24 24"><path fill="#FFC107" d="M12.5 19C8.364 19 5 15.636 5 11.5S8.364 4 12.5 4 20 7.364 20 11.5 16.636 19 12.5 19zM12.5 3a1 1 0 0 1-1-1V1a1 1 0 1 1 2 0v1a1 1 0 0 1-1 1zM23 12.5h-1a1 1 0 1 1 0-2h1a1 1 0 1 1 0 2zM18.511 5.49a1 1 0 0 1 0-1.415l.707-.708a1 1 0 1 1 1.414 1.415l-.707.708a1 1 0 0 1-1.414 0zM19.218 19.632l-.707-.708a1 1 0 1 1 1.414-1.415l.707.708a1 1 0 1 1-1.414 1.415zM5.075 5.49l-.707-.708a1 1 0 1 1 1.414-1.415l.707.708A1 1 0 1 1 5.075 5.49z"/><path fill="#607D8B" d="M6 24c-3.309 0-6-2.691-6-6s2.691-6 6-6 6 2.691 6 6-2.691 6-6 6z"/></svg>